#!OML:ASF I:\Actors\actors\Patient Classification 2\Patient 1\Session 1\actor1.ASF
:FULLY-SPECIFIED
:DEGREES
77
root -0.500293 18.6313 5.69419 0.768303 -3.35337 0.136047
lowerback 1.21567 1.26308 -1.43755
upperback -2.6354 1.64219 -0.0580807
thorax -3.42845 0.855765 0.676169
lowerneck -8.66642 -2.55167 -2.25464
upperneck 22.2092 -4.0216 3.75454
head 8.43983 -1.72474 1.2421
rclavicle -1.85739e-014 1.49089e-015
rhumerus -48.9313 -2.15997 -87.5085
rradius 41.4505
rwrist 17.2105
rhand -10.2378 -29.4241
rfingers 7.12502
rthumb 15.7547 -58.8029
lclavicle -1.85739e-014 1.49089e-015
lhumerus -42.8819 0.147211 91.7533
lradius 37.5175
lwrist -9.40665
lhand -5.74093 -25.487
lfingers 7.12502
lthumb 20.0814 3.49524
rfemur 0 0 0
rtibia 0
rfoot 0 0
rtoes 0
lfemur -1.33324 -4.88367 -15.4879
ltibia 19.1775
lfoot -24.1279 17.7135
ltoes -55.3669
78
root -0.499741 18.63 5.69407 0.740515 -3.36565 0.191337
lowerback 1.2129 1.27254 -1.48728
upperback -2.68676 1.65176 -0.0981392
thorax -3.48056 0.861825 0.661685
lowerneck -8.6415 -2.57029 -2.27561
upperneck 22.2529 -4.05636 3.79885
head 8.45261 -1.73852 1.25739
rclavicle 1.02995e-014 2.48481e-015
rhumerus -49.0296 -2.15106 -87.5566
rradius 41.5236
rwrist 17.1609
rhand -10.1396 -29.5789
rfingers 7.12502
rthumb 15.8492 -58.9502
lclavicle 1.02995e-014 2.48481e-015
lhumerus -43.0337 0.292327 91.6605
lradius 37.5094
lwrist -9.50532
lhand -5.58441 -25.3949
lfingers 7.12502
lthumb 20.2318 3.57147
rfemur 0 0 0
rtibia 0
rfoot 0 0
rtoes 0
lfemur -1.26277 -4.91259 -15.5579
ltibia 19.106
lfoot -24.1423 17.7262
ltoes -55.3071
79
root -0.499344 18.629 5.69376 0.709964 -3.39142 0.277636
lowerback 1.20129 1.29804 -1.56554
upperback -2.72358 1.68229 -0.132821
thorax -3.51419 0.879033 0.668169
lowerneck -8.58938 -2.61692 -2.34332
upperneck 22.2472 -4.11456 3.81783
head 8.44494 -1.77057 1.26995
rclavicle 1.1486e-014 -9.93923e-015
rhumerus -49.1135 -2.13948 -87.5633
rradius 41.5793
rwrist 17.0881
rhand -10.2367 -29.6465
rfingers 7.12502
rthumb 15.7557 -59.0252
lclavicle 1.1486e-014 -9.93923e-015
lhumerus -43.1893 0.401642 91.6168
lradius 37.5265
lwrist -9.55949
lhand -5.44735 -25.3286
lfingers 7.12502
lthumb 20.3635 3.6237
rfemur 0 0 0
rtibia 0
rfoot 0 0
rtoes 0
lfemur -1.18836 -4.99261 -15.6725
ltibia 19.0336
lfoot -24.2098 17.7859
ltoes -55.2831
80
root -0.499437 18.6282 5.69378 0.671698 -3.43869 0.341191
lowerback 1.16585 1.32569 -1.64557
upperback -2.72512 1.71689 -0.151991
thorax -3.49853 0.898085 0.692554
lowerneck -8.63082 -2.66213 -2.33078
upperneck 22.2926 -4.17014 3.76798
head 8.46864 -1.79973 1.24505
rclavicle -1.33372e-014 -1.43125e-014
rhumerus -49.1225 -2.17052 -87.5382
rradius 41.5993
rwrist 17.0902
rhand -10.2394 -29.609
rfingers 7.12502
rthumb 15.7531 -58.9879
lclavicle -1.33372e-014 -1.43125e-014
lhumerus -43.2824 0.45805 91.5914
lradius 37.4922
lwrist -9.52857
lhand -5.49931 -25.3076
lfingers 7.12502
lthumb 20.3136 3.65005
rfemur 0 0 0
rtibia 0
rfoot 0 0
rtoes 0
lfemur -1.0973 -5.21055 -15.7825
ltibia 18.9741
lfoot -24.3131 17.9616
ltoes -55.2682
81
root -0.499805 18.6278 5.69285 0.653304 -3.50073 0.325223
lowerback 1.12598 1.34001 -1.64429
upperback -2.71953 1.73669 -0.15704
thorax -3.47052 0.907651 0.686895
lowerneck -8.72607 -2.66561 -2.39954
upperneck 22.3714 -4.18456 3.85413
head 8.5169 -1.80172 1.28302
rclavicle 2.5724e-014 7.95139e-015
rhumerus -49.0672 -2.23358 -87.5191
rradius 41.5887
rwrist 17.1564
rhand -10.0802 -29.6291
rfingers 7.12502
rthumb 15.9064 -58.9959
lclavicle 2.5724e-014 7.95139e-015
lhumerus -43.3568 0.581053 91.5023
lradius 37.4933
lwrist -9.48691
lhand -5.49843 -25.3905
lfingers 7.12502
lthumb 20.3145 3.5671
rfemur 0 0 0
rtibia 0
rfoot 0 0
rtoes 0
lfemur -1.04253 -5.38326 -15.7993
ltibia 18.9368
lfoot -24.3814 18.1676
ltoes -55.2813
